{
  "accessors": [
    {
      "bufferView": 2,
      "componentType": 5126,
      "count": 352,
      "max": [
        0.6180881857872009,
        1.781856894493103,
        0.6180881857872009
      ],
      "min": [
        -0.6180881857872009,
        -2.491957187652588,
        -0.6180881857872009
      ],
      "type": "VEC3"
    },
    {
      "bufferView": 2,
      "byteOffset": 4224,
      "componentType": 5126,
      "count": 352,
      "max": [
        0.9914475083351135,
        1.0,
        0.9914475083351135
      ],
      "min": [
        -0.9914475083351135,
        -0.9935169219970703,
        -0.9914475083351135
      ],
      "type": "VEC3"
    },
    {
      "bufferView": 1,
      "componentType": 5126,
      "count": 352,
      "max": [
        0.917127788066864,
        0.9834475517272949
      ],
      "min": [
        0.6806277632713318,
        0.1325925588607788
      ],
      "type": "VEC2"
    },
    {
      "bufferView": 0,
      "componentType": 5125,
      "count": 2046,
      "type": "SCALAR"
    },
    {
      "bufferView": 2,
      "byteOffset": 8448,
      "componentType": 5126,
      "count": 320,
      "max": [
        0.5642574429512024,
        1.7688781023025513,
        0.5642573833465576
      ],
      "min": [
        -0.5642573833465576,
        -2.4027929306030273,
        -0.5642573833465576
      ],
      "type": "VEC3"
    },
    {
      "bufferView": 2,
      "byteOffset": 12288,
      "componentType": 5126,
      "count": 320,
      "max": [
        0.9945875406265259,
        0.998094379901886,
        0.9945876598358154
      ],
      "min": [
        -0.9945875406265259,
        -0.948681116104126,
        -0.9945876598358154
      ],
      "type": "VEC3"
    },
    {
      "bufferView": 1,
      "byteOffset": 2816,
      "componentType": 5126,
      "count": 320,
      "max": [
        0.917127788066864,
        0.9834475517272949
      ],
      "min": [
        0.6806277632713318,
        0.1325925588607788
      ],
      "type": "VEC2"
    },
    {
      "bufferView": 0,
      "byteOffset": 8184,
      "componentType": 5125,
      "count": 1866,
      "type": "SCALAR"
    },
    {
      "bufferView": 2,
      "byteOffset": 16128,
      "componentType": 5126,
      "count": 5032,
      "max": [
        0.28006187081336975,
        2.327425718307495,
        0.2779754400253296
      ],
      "min": [
        -0.27708107233047485,
        1.7854161262512207,
        -0.27906081080436707
      ],
      "type": "VEC3"
    },
    {
      "bufferView": 2,
      "byteOffset": 76512,
      "componentType": 5126,
      "count": 5032,
      "max": [
        0.9999877214431763,
        0.9999423623085022,
        0.9999808073043823
      ],
      "min": [
        -0.999861478805542,
        -0.9999996423721313,
        -0.9999991655349731
      ],
      "type": "VEC3"
    },
    {
      "bufferView": 1,
      "byteOffset": 5376,
      "componentType": 5126,
      "count": 5032,
      "max": [
        0.0,
        1.0
      ],
      "min": [
        0.0,
        1.0
      ],
      "type": "VEC2"
    },
    {
      "bufferView": 0,
      "byteOffset": 15648,
      "componentType": 5125,
      "count": 25536,
      "type": "SCALAR"
    },
    {
      "bufferView": 2,
      "byteOffset": 136896,
      "componentType": 5126,
      "count": 1786,
      "max": [
        0.2815503776073456,
        2.4216487407684326,
        0.2807851731777191
      ],
      "min": [
        -0.28197455406188965,
        2.3241591453552246,
        -0.2798560857772827
      ],
      "type": "VEC3"
    },
    {
      "bufferView": 2,
      "byteOffset": 158328,
      "componentType": 5126,
      "count": 1786,
      "max": [
        0.999539852142334,
        0.9999986886978149,
        0.9999458193778992
      ],
      "min": [
        -0.9998078346252441,
        -0.9999653100967407,
        -0.9998923540115356
      ],
      "type": "VEC3"
    },
    {
      "bufferView": 1,
      "byteOffset": 45632,
      "componentType": 5126,
      "count": 1786,
      "max": [
        0.0,
        1.0
      ],
      "min": [
        0.0,
        1.0
      ],
      "type": "VEC2"
    },
    {
      "bufferView": 0,
      "byteOffset": 117792,
      "componentType": 5125,
      "count": 9408,
      "type": "SCALAR"
    },
    {
      "bufferView": 2,
      "byteOffset": 179760,
      "componentType": 5126,
      "count": 832,
      "max": [
        0.27041324973106384,
        2.2798075675964355,
        0.2682289183139801
      ],
      "min": [
        -0.2678341567516327,
        1.8484175205230713,
        -0.26977548003196716
      ],
      "type": "VEC3"
    },
    {
      "bufferView": 2,
      "byteOffset": 189744,
      "componentType": 5126,
      "count": 832,
      "max": [
        0.9999748468399048,
        0.39209672808647156,
        0.9999808073043823
      ],
      "min": [
        -0.9999743700027466,
        -0.42768704891204834,
        -0.9998799562454224
      ],
      "type": "VEC3"
    },
    {
      "bufferView": 1,
      "byteOffset": 59920,
      "componentType": 5126,
      "count": 832,
      "max": [
        0.0,
        1.0
      ],
      "min": [
        0.0,
        1.0
      ],
      "type": "VEC2"
    },
    {
      "bufferView": 0,
      "byteOffset": 155424,
      "componentType": 5125,
      "count": 3840,
      "type": "SCALAR"
    },
    {
      "bufferView": 2,
      "byteOffset": 199728,
      "componentType": 5126,
      "count": 42,
      "max": [
        0.29799720644950867,
        -1.0070124864578247,
        -0.6194067597389221
      ],
      "min": [
        -0.29799720644950867,
        -1.6030069589614868,
        -0.6253666877746582
      ],
      "type": "VEC3"
    },
    {
      "bufferView": 2,
      "byteOffset": 200232,
      "componentType": 5126,
      "count": 42,
      "max": [
        1.0,
        1.0,
        1.0
      ],
      "min": [
        -1.0,
        -1.0,
        -1.0
      ],
      "type": "VEC3"
    },
    {
      "bufferView": 1,
      "byteOffset": 66576,
      "componentType": 5126,
      "count": 42,
      "max": [
        1.0,
        1.0
      ],
      "min": [
        0.0,
        0.0
      ],
      "type": "VEC2"
    },
    {
      "bufferView": 0,
      "byteOffset": 170784,
      "componentType": 5125,
      "count": 96,
      "type": "SCALAR"
    },
    {
      "bufferView": 2,
      "byteOffset": 200736,
      "componentType": 5126,
      "count": 502,
      "max": [
        0.455152690410614,
        -1.697084665298462,
        -0.6143978238105774
      ],
      "min": [
        -0.43900689482688904,
        -1.9773005247116089,
        -0.6200229525566101
      ],
      "type": "VEC3"
    },
    {
      "bufferView": 2,
      "byteOffset": 206760,
      "componentType": 5126,
      "count": 502,
      "max": [
        0.9969140291213989,
        1.0,
        1.0
      ],
      "min": [
        -0.9969140291213989,
        -1.0,
        -1.0
      ],
      "type": "VEC3"
    },
    {
      "bufferView": 1,
      "byteOffset": 66912,
      "componentType": 5126,
      "count": 502,
      "max": [
        0.9851853251457214,
        0.6610921621322632
      ],
      "min": [
        0.01728394813835621,
        0.49025827646255493
      ],
      "type": "VEC2"
    },
    {
      "bufferView": 0,
      "byteOffset": 171168,
      "componentType": 5125,
      "count": 2016,
      "type": "SCALAR"
    },
    {
      "bufferView": 2,
      "byteOffset": 212784,
      "componentType": 5126,
      "count": 4042,
      "max": [
        0.6269187927246094,
        0.6289198994636536,
        -0.4651700556278229
      ],
      "min": [
        -0.6324412226676941,
        -0.7313953042030334,
        -0.6653611660003662
      ],
      "type": "VEC3"
    },
    {
      "bufferView": 2,
      "byteOffset": 261288,
      "componentType": 5126,
      "count": 4042,
      "max": [
        0.99991774559021,
        0.9950528144836426,
        1.0
      ],
      "min": [
        -0.9999642372131348,
        -0.9994444251060486,
        -1.0
      ],
      "type": "VEC3"
    },
    {
      "bufferView": 1,
      "byteOffset": 70928,
      "componentType": 5126,
      "count": 4042,
      "max": [
        0.7373371124267578,
        0.7886030673980713
      ],
      "min": [
        0.2005804032087326,
        0.15995103120803833
      ],
      "type": "VEC2"
    },
    {
      "bufferView": 0,
      "byteOffset": 179232,
      "componentType": 5125,
      "count": 24240,
      "type": "SCALAR"
    }
  ],
  "asset": {
    "extras": {
      "author": "Biankk_ (https://sketchfab.com/monica.2602.bianca)",
      "license": "SKETCHFAB Standard (https://sketchfab.com/licenses)",
      "source": "https://sketchfab.com/3d-models/red-label-1193e08ad2494ebabb17c49565903fe5",
      "title": "RED LABEL"
    },
    "generator": "Sketchfab-16.59.0",
    "version": "2.0"
  },
  "bufferViews": [
    {
      "buffer": 0,
      "byteLength": 276192,
      "name": "floatBufferViews",
      "target": 34963
    },
    {
      "buffer": 0,
      "byteLength": 103264,
      "byteOffset": 276192,
      "byteStride": 8,
      "name": "floatBufferViews",
      "target": 34962
    },
    {
      "buffer": 0,
      "byteLength": 309792,
      "byteOffset": 379456,
      "byteStride": 12,
      "name": "floatBufferViews",
      "target": 34962
    }
  ],
  "buffers": [
    {
      "byteLength": 689248,
      "uri": "scene.bin"
    }
  ],
  "images": [
    {
      "uri": "textures/GLASS1_baseColor.jpeg"
    },
    {
      "uri": "textures/LOGO2_baseColor.png"
    },
    {
      "uri": "textures/ROTULO_baseColor.png"
    },
    {
      "uri": "textures/LOGO1_baseColor.jpeg"
    }
  ],
  "materials": [
    {
      "alphaMode": "BLEND",
      "doubleSided": true,
      "name": "GLASS1",
      "pbrMetallicRoughness": {
        "baseColorFactor": [
          1.0,
          1.0,
          1.0,
          0.658147
        ],
        "baseColorTexture": {
          "index": 0
        },
        "roughnessFactor": 0.0
      }
    },
    {
      "alphaMode": "BLEND",
      "doubleSided": true,
      "name": "LIQUID",
      "pbrMetallicRoughness": {
        "baseColorFactor": [
          1.0,
          1.0,
          1.0,
          0.492792
        ],
        "baseColorTexture": {
          "index": 0
        },
        "metallicFactor": 0.666667,
        "roughnessFactor": 0.0
      }
    },
    {
      "doubleSided": true,
      "name": "METAL1",
      "pbrMetallicRoughness": {
        "baseColorFactor": [
          0.801009,
          0.642357,
          0.226348,
          1.0
        ],
        "roughnessFactor": 0.46063
      }
    },
    {
      "doubleSided": true,
      "name": "METAL2",
      "pbrMetallicRoughness": {
        "baseColorFactor": [
          0.156265,
          0.0,
          0.00784709,
          1.0
        ],
        "roughnessFactor": 0.46063
      }
    },
    {
      "doubleSided": true,
      "name": "METAL3",
      "pbrMetallicRoughness": {
        "baseColorFactor": [
          0.625229,
          0.406768,
          0.127933,
          1.0
        ],
        "roughnessFactor": 0.38189
      }
    },
    {
      "alphaMode": "BLEND",
      "doubleSided": true,
      "name": "LOGO2",
      "pbrMetallicRoughness": {
        "baseColorTexture": {
          "index": 1
        },
        "roughnessFactor": 0.258196
      }
    },
    {
      "alphaMode": "BLEND",
      "doubleSided": true,
      "name": "ROTULO",
      "pbrMetallicRoughness": {
        "baseColorTexture": {
          "index": 2
        }
      }
    },
    {
      "doubleSided": true,
      "name": "LOGO1",
      "pbrMetallicRoughness": {
        "baseColorTexture": {
          "index": 3
        },
        "metallicFactor": 0.874016,
        "roughnessFactor": 0.212598
      }
    }
  ],
  "meshes": [
    {
      "name": "Object_0",
      "primitives": [
        {
          "attributes": {
            "NORMAL": 1,
            "POSITION": 0,
            "TEXCOORD_0": 2
          },
          "indices": 3,
          "material": 0,
          "mode": 4
        }
      ]
    },
    {
      "name": "Object_1",
      "primitives": [
        {
          "attributes": {
            "NORMAL": 5,
            "POSITION": 4,
            "TEXCOORD_0": 6
          },
          "indices": 7,
          "material": 1,
          "mode": 4
        }
      ]
    },
    {
      "name": "Object_2",
      "primitives": [
        {
          "attributes": {
            "NORMAL": 9,
            "POSITION": 8,
            "TEXCOORD_0": 10
          },
          "indices": 11,
          "material": 2,
          "mode": 4
        }
      ]
    },
    {
      "name": "Object_3",
      "primitives": [
        {
          "attributes": {
            "NORMAL": 13,
            "POSITION": 12,
            "TEXCOORD_0": 14
          },
          "indices": 15,
          "material": 3,
          "mode": 4
        }
      ]
    },
    {
      "name": "Object_4",
      "primitives": [
        {
          "attributes": {
            "NORMAL": 17,
            "POSITION": 16,
            "TEXCOORD_0": 18
          },
          "indices": 19,
          "material": 4,
          "mode": 4
        }
      ]
    },
    {
      "name": "Object_5",
      "primitives": [
        {
          "attributes": {
            "NORMAL": 21,
            "POSITION": 20,
            "TEXCOORD_0": 22
          },
          "indices": 23,
          "material": 5,
          "mode": 4
        }
      ]
    },
    {
      "name": "Object_6",
      "primitives": [
        {
          "attributes": {
            "NORMAL": 25,
            "POSITION": 24,
            "TEXCOORD_0": 26
          },
          "indices": 27,
          "material": 6,
          "mode": 4
        }
      ]
    },
    {
      "name": "Object_7",
      "primitives": [
        {
          "attributes": {
            "NORMAL": 29,
            "POSITION": 28,
            "TEXCOORD_0": 30
          },
          "indices": 31,
          "material": 7,
          "mode": 4
        }
      ]
    }
  ],
  "nodes": [
    {
      "children": [
        1
      ],
      "matrix": [
        1.0,
        0.0,
        0.0,
        0.0,
        0.0,
        2.220446049250313e-16,
        -1.0,
        0.0,
        0.0,
        1.0,
        2.220446049250313e-16,
        0.0,
        0.0,
        0.0,
        0.0,
        1.0
      ],
      "name": "Sketchfab_model"
    },
    {
      "children": [
        2
      ],
      "name": "root"
    },
    {
      "children": [
        3,
        6,
        10,
        12,
        14
      ],
      "matrix": [
        1.0,
        0.0,
        0.0,
        0.0,
        0.0,
        2.220446049250313e-16,
        1.0,
        0.0,
        0.0,
        -1.0,
        2.220446049250313e-16,
        0.0,
        0.0,
        0.0,
        0.0,
        1.0
      ],
      "name": "GLTF_SceneRootNode"
    },
    {
      "children": [
        4,
        5
      ],
      "name": "BOTTLE_0"
    },
    {
      "mesh": 0,
      "name": "Object_4"
    },
    {
      "mesh": 1,
      "name": "Object_5"
    },
    {
      "children": [
        7,
        8,
        9
      ],
      "name": "CAP_1"
    },
    {
      "mesh": 2,
      "name": "Object_7"
    },
    {
      "mesh": 3,
      "name": "Object_8"
    },
    {
      "mesh": 4,
      "name": "Object_9"
    },
    {
      "children": [
        11
      ],
      "name": "LABEL2_2"
    },
    {
      "mesh": 5,
      "name": "Object_11"
    },
    {
      "children": [
        13
      ],
      "name": "LABEL1_3"
    },
    {
      "mesh": 6,
      "name": "Object_13"
    },
    {
      "children": [
        15
      ],
      "name": "LABEL3_4"
    },
    {
      "mesh": 7,
      "name": "Object_15"
    }
  ],
  "samplers": [
    {
      "magFilter": 9729,
      "minFilter": 9987,
      "wrapS": 10497,
      "wrapT": 10497
    }
  ],
  "scene": 0,
  "scenes": [
    {
      "name": "Sketchfab_Scene",
      "nodes": [
        0
      ]
    }
  ],
  "textures": [
    {
      "sampler": 0,
      "source": 0
    },
    {
      "sampler": 0,
      "source": 1
    },
    {
      "sampler": 0,
      "source": 2
    },
    {
      "sampler": 0,
      "source": 3
    }
  ]
}
